Coordinates
version=1
nRows=20
nColumns=38
inDegrees=no

Units are S.I. units (second, meters, Newtons, ...)
If the header above contains a line with 'inDegrees', this indicates whether rotational values are in degrees (yes) or radians (no).

endheader
time	pelvis_tilt	pelvis_list	pelvis_rotation	pelvis_tx	pelvis_ty	pelvis_tz	hip_flexion_r	hip_adduction_r	hip_rotation_r	knee_angle_r	ankle_angle_r	subtalar_angle_r	mtp_angle_r	hip_flexion_l	hip_adduction_l	hip_rotation_l	knee_angle_l	ankle_angle_l	subtalar_angle_l	mtp_angle_l	lumbar_extension	lumbar_bending	lumbar_rotation	arm_flex_r	arm_add_r	arm_rot_r	elbow_flex_r	pro_sup_r	wrist_flex_r	wrist_dev_r	arm_flex_l	arm_add_l	arm_rot_l	elbow_flex_l	pro_sup_l	wrist_flex_l	wrist_dev_l
2.33	2.54479	1.40352	-0.837082	0.671571	1.48496	0.941636	0.121	0.116052	-0.160406	0.525741	-0.183281	0	0	-0.0278359	-0.167582	0.12114	1.14126	-0.536458	0	0	-0.319876	0.187196	-0.046294	-0.248561	-0.580281	0.519185	0.896979	0.773772	0	0	-0.196418	-0.142441	-0.0992889	0.629379	1.5708	0	0
2.34	2.56006	1.39889	-0.85437	0.672659	1.49353	0.942797	0.0986626	0.122192	-0.153115	0.511547	-0.180718	0	0	-0.0026231	-0.166031	0.132736	1.18542	-0.525366	0	0	-0.325927	0.186945	-0.0413431	-0.250574	-0.576567	0.510801	0.895772	0.782024	0	0	-0.196279	-0.143938	-0.0973363	0.633626	1.5708	0	0
2.35	2.57511	1.39544	-0.871905	0.673775	1.50195	0.943902	0.0768061	0.127398	-0.145247	0.495485	-0.178876	0	0	0.0226601	-0.162785	0.143421	1.22592	-0.499401	0	0	-0.331589	0.185667	-0.0361268	-0.252477	-0.571277	0.500148	0.893332	0.791046	0	0	-0.19489	-0.145382	-0.0949662	0.635906	1.5708	0	0
2.36	2.59083	1.39273	-0.890371	0.674865	1.51022	0.944993	0.0553917	0.131605	-0.138925	0.478459	-0.178061	0	0	0.0472906	-0.157758	0.154137	1.26149	-0.465442	0	0	-0.33678	0.183562	-0.030704	-0.253716	-0.565084	0.489134	0.889275	0.801529	0	0	-0.19203	-0.146699	-0.0918225	0.635752	1.5708	0	0
2.37	2.60915	1.3908	-0.911916	0.675929	1.51838	0.946071	0.0366668	0.133791	-0.135049	0.46758	-0.175475	0	0	0.0717148	-0.152069	0.161783	1.29073	-0.45242	0	0	-0.340737	0.18022	-0.0279641	-0.246749	-0.563476	0.497954	0.882927	0.794932	0	0	-0.190028	-0.146637	-0.0940621	0.634979	1.5708	0	0
2.38	2.62939	1.38938	-0.935995	0.67699	1.52648	0.947109	0.0188069	0.134902	-0.130614	0.458108	-0.173845	0	0	0.0953355	-0.145503	0.167398	1.31535	-0.42404	0	0	-0.344483	0.175907	-0.0258027	-0.23767	-0.562403	0.510625	0.875438	0.786039	0	0	-0.188174	-0.146625	-0.0961098	0.63328	1.5708	0	0
2.39	2.65233	1.38867	-0.963215	0.678035	1.53458	0.948082	0.00202202	0.134603	-0.126952	0.450325	-0.171772	0	0	0.118548	-0.138461	0.170076	1.33423	-0.401359	0	0	-0.347907	0.170518	-0.023657	-0.228768	-0.560757	0.522561	0.867772	0.777325	0	0	-0.186037	-0.146932	-0.0966819	0.630428	1.5708	0	0
2.4	2.67728	1.38755	-0.992968	0.679091	1.54261	0.949126	-0.0188788	0.13471	-0.118298	0.432856	-0.172024	0	0	0.140403	-0.131898	0.169979	1.34724	-0.382594	0	0	-0.351966	0.16491	-0.020894	-0.22009	-0.55945	0.534096	0.860889	0.769846	0	0	-0.183321	-0.147281	-0.0969685	0.627231	1.5708	0	0
2.41	2.70717	1.38832	-1.02827	0.680064	1.5506	0.949964	-0.0324864	0.130929	-0.118331	0.431412	-0.168151	0	0	0.162693	-0.123624	0.166814	1.35511	-0.361412	0	0	-0.356013	0.157997	0.00236064	-0.253181	-0.533353	0.447887	0.859162	0.84081	0	0	-0.165996	-0.153231	-0.0677057	0.615555	1.5708	0	0
2.42	2.73517	1.38871	-1.06108	0.680989	1.5583	0.950824	-0.0531205	0.128645	-0.108865	0.409842	-0.169664	0	0	0.184444	-0.116314	0.16306	1.3578	-0.339157	0	0	-0.357109	0.150438	-0.0189599	-0.196312	-0.561831	0.574429	0.849265	0.733436	0	0	-0.179985	-0.147548	-0.101809	0.623134	1.5708	0	0
2.43	2.76411	1.38863	-1.09666	0.681954	1.56615	0.951508	-0.0685398	0.124655	-0.107726	0.404418	-0.165961	0	0	0.20511	-0.111782	0.150246	1.35638	-0.32317	0	0	-0.360959	0.143309	-0.01369	-0.194032	-0.558911	0.571714	0.846557	0.736549	0	0	-0.177535	-0.14813	-0.101568	0.622566	1.5708	0	0
2.44	2.79629	1.38699	-1.13593	0.682953	1.57405	0.952209	-0.0826658	0.120111	-0.11027	0.406567	-0.162602	0	0	0.222582	-0.108049	0.132474	1.34969	-0.307625	0	0	-0.366479	0.136083	-0.0077394	-0.192267	-0.556892	0.569032	0.845194	0.740208	0	0	-0.175961	-0.149379	-0.100325	0.623754	1.5708	0	0
2.45	2.82113	1.38406	-1.16743	0.684	1.58189	0.952895	-0.104903	0.118786	-0.101043	0.388161	-0.163356	0	0	0.239889	-0.109402	0.105447	1.33902	-0.292731	0	0	-0.372748	0.130458	-0.00108897	-0.191224	-0.555	0.565109	0.844333	0.745038	0	0	-0.174492	-0.151006	-0.0981322	0.626247	1.5708	0	0
2.46	2.84392	1.38129	-1.19728	0.684966	1.58959	0.953383	-0.122417	0.116601	-0.0963718	0.380324	-0.161389	0	0	0.256959	-0.113084	0.0717129	1.32449	-0.280741	0	0	-0.379036	0.125089	0.00612486	-0.191065	-0.553914	0.559898	0.84503	0.749707	0	0	-0.173241	-0.152485	-0.0961185	0.62992	1.5708	0	0
2.47	2.86262	1.37895	-1.22247	0.685829	1.59723	0.953677	-0.138175	0.114583	-0.0930394	0.374602	-0.159085	0	0	0.273542	-0.118783	0.0371497	1.30597	-0.269342	0	0	-0.384765	0.120472	0.0131595	-0.19148	-0.553713	0.554441	0.847029	0.755619	0	0	-0.171916	-0.153974	-0.0942	0.633941	1.5708	0	0
2.48	2.86998	1.3744	-1.23761	0.686875	1.60515	0.953774	-0.156719	0.115911	-0.0866588	0.366458	-0.15706	0	0	0.290398	-0.145577	-0.0257967	1.2897	-0.26657	0	0	-0.391782	0.118241	0.0222909	-0.195201	-0.55437	0.544667	0.852828	0.762791	0	0	-0.172668	-0.155459	-0.0925307	0.641395	1.5708	0	0
2.49	2.87523	1.369	-1.25108	0.687941	1.61325	0.953836	-0.175506	0.1175	-0.0828284	0.36069	-0.154068	0	0	0.302389	-0.184665	-0.10736	1.26956	-0.269998	0	0	-0.398929	0.11643	0.0307337	-0.199176	-0.554229	0.533291	0.858409	0.775402	0	0	-0.174592	-0.156311	-0.0926987	0.648897	1.5708	0	0
2.5	2.88675	1.3679	-1.26712	0.688527	1.62067	0.953735	-0.189137	0.116541	-0.0790201	0.355179	-0.150912	0	0	0.313506	-0.188455	-0.134358	1.23541	-0.268473	0	0	-0.403366	0.113089	0.0341334	-0.194795	-0.557978	0.540591	0.861805	0.767642	0	0	-0.174969	-0.157131	-0.0937212	0.655115	1.5708	0	0
2.51	2.90103	1.36676	-1.28401	0.689148	1.62809	0.953471	-0.202928	0.116137	-0.0785588	0.349654	-0.1456	0	0	0.323101	-0.190147	-0.157281	1.19648	-0.270776	0	0	-0.403806	0.109927	0.0952606	-0.289744	-0.50249	0.333006	0.873221	0.922747	0	0	-0.124223	-0.218566	0.145298	0.637166	1.40686	0	0
2.52	2.90603	1.36821	-1.28958	0.689419	1.63574	0.953012	-0.213939	0.116196	-0.0808528	0.343294	-0.142424	0	0	0.334723	-0.192178	-0.178877	1.15352	-0.282392	0	0	-0.405281	0.10828	0.0696219	-0.244206	-0.533466	0.436948	0.870887	0.832002	0	0	-0.14724	-0.194286	0.038979	0.649114	1.48491	0	0
